<?xml version="1.0" encoding="iso-8859-1"?>
<!-- Generator: Adobe Illustrator 19.1.1, SVG Export Plug-In . SVG Version: 6.00 Build 0)  -->
<svg xmlns="http://www.w3.org/2000/svg" xmlns:xlink="http://www.w3.org/1999/xlink" version="1.1" id="Layer_1" x="0px" y="0px" viewBox="0 0 48 48" style="enable-background:new 0 0 48 48;" xml:space="preserve">
<path style="fill:none;stroke:#455A64;stroke-width:2;stroke-miterlimit:10;" d="M41.669,31.001C38.881,38.029,32.021,43,24,43  c-6.825,0-12.809-3.598-16.159-9.001"/>
<path style="fill:none;stroke:#455A64;stroke-width:2;stroke-miterlimit:10;" d="M9.269,12C12.753,7.728,18.058,5,24,5  c6.097,0,11.524,2.872,15,7.337"/>
<circle style="fill:#CFD8DC;" cx="11" cy="17" r="8"/>
<path style="fill:#2196F3;" d="M19,17H3c0-4.418,3.582-8,8-8S19,12.582,19,17z"/>
<path style="fill:#455A64;" d="M3,17c0,0.339,0.028,0.672,0.069,1h15.862C18.972,17.672,19,17.339,19,17s-0.028-0.672-0.069-1H3.069  C3.028,16.328,3,16.661,3,17z"/>
<circle style="fill:#455A64;" cx="11" cy="17" r="4"/>
<circle style="fill:#FFFFFF;" cx="11" cy="17" r="2"/>
<circle style="fill:#CFD8DC;" cx="37" cy="30" r="8"/>
<path style="fill:#FF3D00;" d="M45,30H29c0-4.418,3.582-8,8-8S45,25.582,45,30z"/>
<path style="fill:#455A64;" d="M29,30c0,0.339,0.028,0.672,0.069,1h15.862C44.972,30.672,45,30.339,45,30s-0.028-0.672-0.069-1  H29.069C29.028,29.328,29,29.661,29,30z"/>
<circle style="fill:#455A64;" cx="37" cy="30" r="4"/>
<circle style="fill:#FFFFFF;" cx="37" cy="30" r="2"/>
<polygon style="fill:#FF3D00;" points="43,17 41,8.5 35.082,14 "/>
<polygon style="fill:#2196F3;" points="5,31 7,39.5 12.918,34 "/>
<polygon style="fill:#455A64;" points="24,26 17,24 19,31 "/>
<line style="fill:none;stroke:#455A64;stroke-width:2;stroke-linecap:round;stroke-linejoin:round;stroke-miterlimit:10;" x1="20" y1="27" x2="25" y2="32"/>
<polygon style="fill:#455A64;" points="28,17 30,24 23,22 "/>
<line style="fill:none;stroke:#455A64;stroke-width:2;stroke-linecap:round;stroke-linejoin:round;stroke-miterlimit:10;" x1="27" y1="21" x2="22" y2="16"/>
</svg>
